<mxfile host="Electron" agent="Mozilla/5.0 (Macintosh; Intel Mac OS X 10_15_7) AppleWebKit/537.36 (KHTML, like Gecko) draw.io/24.7.5 Chrome/126.0.6478.183 Electron/31.3.0 Safari/537.36" version="24.7.5">
  <diagram name="Page-1" id="TxuZtLsQsgt4EMoVfcpZ">
    <mxGraphModel dx="1114" dy="728" grid="1" gridSize="10" guides="1" tooltips="1" connect="1" arrows="1" fold="1" page="1" pageScale="1" pageWidth="850" pageHeight="1100" math="0" shadow="0">
      <root>
        <mxCell id="0" />
        <mxCell id="1" parent="0" />
        <mxCell id="pak89t4v8cp9WG70PmDk-3" style="edgeStyle=orthogonalEdgeStyle;rounded=0;orthogonalLoop=1;jettySize=auto;html=1;entryX=0.5;entryY=0;entryDx=0;entryDy=0;exitX=0.5;exitY=1;exitDx=0;exitDy=0;" parent="1" source="pak89t4v8cp9WG70PmDk-1" target="pak89t4v8cp9WG70PmDk-2" edge="1">
          <mxGeometry relative="1" as="geometry" />
        </mxCell>
        <mxCell id="pak89t4v8cp9WG70PmDk-5" style="edgeStyle=orthogonalEdgeStyle;rounded=0;orthogonalLoop=1;jettySize=auto;html=1;entryX=0.5;entryY=0;entryDx=0;entryDy=0;" parent="1" source="pak89t4v8cp9WG70PmDk-1" target="pak89t4v8cp9WG70PmDk-4" edge="1">
          <mxGeometry relative="1" as="geometry">
            <Array as="points">
              <mxPoint x="440" y="160" />
              <mxPoint x="170" y="160" />
            </Array>
          </mxGeometry>
        </mxCell>
        <mxCell id="pak89t4v8cp9WG70PmDk-7" style="edgeStyle=orthogonalEdgeStyle;rounded=0;orthogonalLoop=1;jettySize=auto;html=1;entryX=0.5;entryY=0;entryDx=0;entryDy=0;" parent="1" source="pak89t4v8cp9WG70PmDk-1" target="pak89t4v8cp9WG70PmDk-6" edge="1">
          <mxGeometry relative="1" as="geometry">
            <Array as="points">
              <mxPoint x="440" y="160" />
              <mxPoint x="260" y="160" />
            </Array>
          </mxGeometry>
        </mxCell>
        <mxCell id="pak89t4v8cp9WG70PmDk-11" style="edgeStyle=orthogonalEdgeStyle;rounded=0;orthogonalLoop=1;jettySize=auto;html=1;entryX=0.5;entryY=0;entryDx=0;entryDy=0;" parent="1" source="pak89t4v8cp9WG70PmDk-1" target="pak89t4v8cp9WG70PmDk-8" edge="1">
          <mxGeometry relative="1" as="geometry" />
        </mxCell>
        <mxCell id="pak89t4v8cp9WG70PmDk-12" style="edgeStyle=orthogonalEdgeStyle;rounded=0;orthogonalLoop=1;jettySize=auto;html=1;entryX=0.5;entryY=0;entryDx=0;entryDy=0;" parent="1" source="pak89t4v8cp9WG70PmDk-1" target="pak89t4v8cp9WG70PmDk-9" edge="1">
          <mxGeometry relative="1" as="geometry" />
        </mxCell>
        <mxCell id="pak89t4v8cp9WG70PmDk-13" style="edgeStyle=orthogonalEdgeStyle;rounded=0;orthogonalLoop=1;jettySize=auto;html=1;entryX=0.5;entryY=0;entryDx=0;entryDy=0;" parent="1" source="pak89t4v8cp9WG70PmDk-1" target="pak89t4v8cp9WG70PmDk-10" edge="1">
          <mxGeometry relative="1" as="geometry" />
        </mxCell>
        <mxCell id="pak89t4v8cp9WG70PmDk-15" style="edgeStyle=orthogonalEdgeStyle;rounded=0;orthogonalLoop=1;jettySize=auto;html=1;entryX=0.5;entryY=0;entryDx=0;entryDy=0;" parent="1" source="pak89t4v8cp9WG70PmDk-1" target="pak89t4v8cp9WG70PmDk-14" edge="1">
          <mxGeometry relative="1" as="geometry">
            <Array as="points">
              <mxPoint x="440" y="160" />
              <mxPoint x="620" y="160" />
            </Array>
          </mxGeometry>
        </mxCell>
        <mxCell id="pak89t4v8cp9WG70PmDk-17" style="edgeStyle=orthogonalEdgeStyle;rounded=0;orthogonalLoop=1;jettySize=auto;html=1;entryX=0.5;entryY=0;entryDx=0;entryDy=0;" parent="1" source="pak89t4v8cp9WG70PmDk-1" target="pak89t4v8cp9WG70PmDk-16" edge="1">
          <mxGeometry relative="1" as="geometry">
            <Array as="points">
              <mxPoint x="440" y="160" />
              <mxPoint x="710" y="160" />
            </Array>
          </mxGeometry>
        </mxCell>
        <mxCell id="pak89t4v8cp9WG70PmDk-19" style="edgeStyle=orthogonalEdgeStyle;rounded=0;orthogonalLoop=1;jettySize=auto;html=1;entryX=0.5;entryY=0;entryDx=0;entryDy=0;" parent="1" source="pak89t4v8cp9WG70PmDk-1" target="pak89t4v8cp9WG70PmDk-18" edge="1">
          <mxGeometry relative="1" as="geometry">
            <Array as="points">
              <mxPoint x="440" y="160" />
              <mxPoint x="800" y="160" />
            </Array>
          </mxGeometry>
        </mxCell>
        <mxCell id="pak89t4v8cp9WG70PmDk-21" style="edgeStyle=orthogonalEdgeStyle;rounded=0;orthogonalLoop=1;jettySize=auto;html=1;" parent="1" source="pak89t4v8cp9WG70PmDk-1" target="pak89t4v8cp9WG70PmDk-20" edge="1">
          <mxGeometry relative="1" as="geometry">
            <Array as="points">
              <mxPoint x="440" y="160" />
              <mxPoint x="890" y="160" />
            </Array>
          </mxGeometry>
        </mxCell>
        <mxCell id="pak89t4v8cp9WG70PmDk-1" value="Aircraft System" style="rounded=0;whiteSpace=wrap;html=1;fillColor=#f5f5f5;fontColor=#333333;strokeColor=#666666;fontStyle=1" parent="1" vertex="1">
          <mxGeometry x="365" y="80" width="150" height="40" as="geometry" />
        </mxCell>
        <mxCell id="pak89t4v8cp9WG70PmDk-2" value="&lt;span style=&quot;font-weight: normal;&quot;&gt;Air&lt;/span&gt;&lt;div&gt;&lt;span style=&quot;font-weight: normal;&quot;&gt;Vehicle&lt;/span&gt;&lt;/div&gt;" style="rounded=0;whiteSpace=wrap;html=1;fillColor=#f5f5f5;fontColor=#333333;strokeColor=#666666;fontStyle=1" parent="1" vertex="1">
          <mxGeometry x="40" y="200" width="80" height="60" as="geometry" />
        </mxCell>
        <mxCell id="pak89t4v8cp9WG70PmDk-4" value="&lt;span style=&quot;font-weight: 400;&quot;&gt;SE/&lt;/span&gt;&lt;div&gt;&lt;span style=&quot;font-weight: 400;&quot;&gt;Program&lt;/span&gt;&lt;/div&gt;&lt;div&gt;&lt;span style=&quot;font-weight: 400;&quot;&gt;Mgmt&lt;/span&gt;&lt;/div&gt;" style="rounded=0;whiteSpace=wrap;html=1;fillColor=#f5f5f5;fontColor=#333333;strokeColor=#666666;fontStyle=1" parent="1" vertex="1">
          <mxGeometry x="130" y="200" width="80" height="60" as="geometry" />
        </mxCell>
        <mxCell id="pak89t4v8cp9WG70PmDk-6" value="&lt;span style=&quot;font-weight: 400;&quot;&gt;System&lt;/span&gt;&lt;div&gt;&lt;span style=&quot;font-weight: 400;&quot;&gt;T&amp;amp;E&lt;/span&gt;&lt;/div&gt;" style="rounded=0;whiteSpace=wrap;html=1;fillColor=#f5f5f5;fontColor=#333333;strokeColor=#666666;fontStyle=1" parent="1" vertex="1">
          <mxGeometry x="220" y="200" width="80" height="60" as="geometry" />
        </mxCell>
        <mxCell id="pak89t4v8cp9WG70PmDk-8" value="&lt;span style=&quot;font-weight: 400;&quot;&gt;Training&lt;/span&gt;" style="rounded=0;whiteSpace=wrap;html=1;fillColor=#f5f5f5;fontColor=#333333;strokeColor=#666666;fontStyle=1" parent="1" vertex="1">
          <mxGeometry x="310" y="200" width="80" height="60" as="geometry" />
        </mxCell>
        <mxCell id="pak89t4v8cp9WG70PmDk-9" value="&lt;span style=&quot;font-weight: 400;&quot;&gt;Data&lt;/span&gt;" style="rounded=0;whiteSpace=wrap;html=1;fillColor=#f5f5f5;fontColor=#333333;strokeColor=#666666;fontStyle=1" parent="1" vertex="1">
          <mxGeometry x="400" y="200" width="80" height="60" as="geometry" />
        </mxCell>
        <mxCell id="pak89t4v8cp9WG70PmDk-10" value="&lt;span style=&quot;font-weight: 400;&quot;&gt;Peculiar&lt;/span&gt;&lt;div&gt;&lt;span style=&quot;font-weight: 400;&quot;&gt;Support&lt;/span&gt;&lt;/div&gt;&lt;div&gt;&lt;span style=&quot;font-weight: 400;&quot;&gt;Equipment&lt;/span&gt;&lt;/div&gt;" style="rounded=0;whiteSpace=wrap;html=1;fillColor=#f5f5f5;fontColor=#333333;strokeColor=#666666;fontStyle=1" parent="1" vertex="1">
          <mxGeometry x="490" y="200" width="80" height="60" as="geometry" />
        </mxCell>
        <mxCell id="pak89t4v8cp9WG70PmDk-14" value="&lt;span style=&quot;font-weight: 400;&quot;&gt;Common&lt;/span&gt;&lt;div&gt;&lt;span style=&quot;font-weight: 400;&quot;&gt;Support&lt;/span&gt;&lt;/div&gt;&lt;div&gt;&lt;span style=&quot;font-weight: 400;&quot;&gt;Equipment&lt;/span&gt;&lt;/div&gt;" style="rounded=0;whiteSpace=wrap;html=1;fillColor=#f5f5f5;fontColor=#333333;strokeColor=#666666;fontStyle=1" parent="1" vertex="1">
          <mxGeometry x="580" y="200" width="80" height="60" as="geometry" />
        </mxCell>
        <mxCell id="pak89t4v8cp9WG70PmDk-16" value="&lt;span style=&quot;font-weight: 400;&quot;&gt;Op/Site&lt;/span&gt;&lt;div&gt;&lt;span style=&quot;font-weight: 400;&quot;&gt;Activation&lt;/span&gt;&lt;/div&gt;" style="rounded=0;whiteSpace=wrap;html=1;fillColor=#f5f5f5;fontColor=#333333;strokeColor=#666666;fontStyle=1" parent="1" vertex="1">
          <mxGeometry x="670" y="200" width="80" height="60" as="geometry" />
        </mxCell>
        <mxCell id="pak89t4v8cp9WG70PmDk-18" value="&lt;span style=&quot;font-weight: 400;&quot;&gt;Industrial&lt;/span&gt;&lt;div&gt;&lt;span style=&quot;font-weight: 400;&quot;&gt;Facilities&lt;/span&gt;&lt;/div&gt;" style="rounded=0;whiteSpace=wrap;html=1;fillColor=#f5f5f5;fontColor=#333333;strokeColor=#666666;fontStyle=1" parent="1" vertex="1">
          <mxGeometry x="760" y="200" width="80" height="60" as="geometry" />
        </mxCell>
        <mxCell id="pak89t4v8cp9WG70PmDk-20" value="&lt;span style=&quot;font-weight: 400;&quot;&gt;Initial&amp;nbsp;&lt;/span&gt;&lt;span style=&quot;font-weight: 400; background-color: initial;&quot;&gt;Spares and&amp;nbsp;&lt;/span&gt;&lt;div&gt;&lt;span style=&quot;font-weight: 400;&quot;&gt;Initial&amp;nbsp;&lt;/span&gt;&lt;span style=&quot;font-weight: 400; background-color: initial;&quot;&gt;Repair&lt;/span&gt;&lt;/div&gt;&lt;div&gt;&lt;span style=&quot;font-weight: 400;&quot;&gt;Parts&lt;/span&gt;&lt;/div&gt;" style="rounded=0;whiteSpace=wrap;html=1;fillColor=#f5f5f5;fontColor=#333333;strokeColor=#666666;fontStyle=1" parent="1" vertex="1">
          <mxGeometry x="850" y="200" width="80" height="60" as="geometry" />
        </mxCell>
        <mxCell id="Nj_YNkAsuWWnfgFZPc_z-1" value="Airframe" style="text;html=1;align=left;verticalAlign=middle;whiteSpace=wrap;rounded=0;" vertex="1" parent="1">
          <mxGeometry x="40" y="280" width="70" height="30" as="geometry" />
        </mxCell>
        <mxCell id="Nj_YNkAsuWWnfgFZPc_z-2" value="Propulsion" style="text;html=1;align=left;verticalAlign=middle;whiteSpace=wrap;rounded=0;" vertex="1" parent="1">
          <mxGeometry x="40" y="310" width="70" height="30" as="geometry" />
        </mxCell>
        <mxCell id="Nj_YNkAsuWWnfgFZPc_z-3" value="Application Software" style="text;html=1;align=left;verticalAlign=middle;whiteSpace=wrap;rounded=0;" vertex="1" parent="1">
          <mxGeometry x="40" y="340" width="160" height="30" as="geometry" />
        </mxCell>
        <mxCell id="Nj_YNkAsuWWnfgFZPc_z-6" value="System Software" style="text;html=1;align=left;verticalAlign=middle;whiteSpace=wrap;rounded=0;" vertex="1" parent="1">
          <mxGeometry x="40" y="370" width="160" height="30" as="geometry" />
        </mxCell>
        <mxCell id="Nj_YNkAsuWWnfgFZPc_z-7" value="Com/Identification" style="text;html=1;align=left;verticalAlign=middle;whiteSpace=wrap;rounded=0;" vertex="1" parent="1">
          <mxGeometry x="40" y="400" width="160" height="30" as="geometry" />
        </mxCell>
        <mxCell id="Nj_YNkAsuWWnfgFZPc_z-8" value="Navigation/Guidance" style="text;html=1;align=left;verticalAlign=middle;whiteSpace=wrap;rounded=0;" vertex="1" parent="1">
          <mxGeometry x="40" y="430" width="160" height="30" as="geometry" />
        </mxCell>
        <mxCell id="Nj_YNkAsuWWnfgFZPc_z-9" value="Central Computer" style="text;html=1;align=left;verticalAlign=middle;whiteSpace=wrap;rounded=0;" vertex="1" parent="1">
          <mxGeometry x="40" y="460" width="160" height="30" as="geometry" />
        </mxCell>
        <mxCell id="Nj_YNkAsuWWnfgFZPc_z-10" value="Fire Control" style="text;html=1;align=left;verticalAlign=middle;whiteSpace=wrap;rounded=0;" vertex="1" parent="1">
          <mxGeometry x="40" y="490" width="160" height="30" as="geometry" />
        </mxCell>
        <mxCell id="Nj_YNkAsuWWnfgFZPc_z-11" value="Data Display and Controls" style="text;html=1;align=left;verticalAlign=middle;whiteSpace=wrap;rounded=0;" vertex="1" parent="1">
          <mxGeometry x="40" y="520" width="160" height="30" as="geometry" />
        </mxCell>
        <mxCell id="Nj_YNkAsuWWnfgFZPc_z-12" value="Survivability" style="text;html=1;align=left;verticalAlign=middle;whiteSpace=wrap;rounded=0;" vertex="1" parent="1">
          <mxGeometry x="40" y="550" width="70" height="30" as="geometry" />
        </mxCell>
        <mxCell id="Nj_YNkAsuWWnfgFZPc_z-13" value="Reconnaissance" style="text;html=1;align=left;verticalAlign=middle;whiteSpace=wrap;rounded=0;" vertex="1" parent="1">
          <mxGeometry x="40" y="580" width="160" height="30" as="geometry" />
        </mxCell>
        <mxCell id="Nj_YNkAsuWWnfgFZPc_z-14" value="Automatic Flight Control" style="text;html=1;align=left;verticalAlign=middle;whiteSpace=wrap;rounded=0;" vertex="1" parent="1">
          <mxGeometry x="40" y="610" width="160" height="30" as="geometry" />
        </mxCell>
        <mxCell id="Nj_YNkAsuWWnfgFZPc_z-15" value="Central Integrated Checkout" style="text;html=1;align=left;verticalAlign=middle;whiteSpace=wrap;rounded=0;" vertex="1" parent="1">
          <mxGeometry x="40" y="640" width="160" height="30" as="geometry" />
        </mxCell>
        <mxCell id="Nj_YNkAsuWWnfgFZPc_z-16" value="Antisubmarine Warfare" style="text;html=1;align=left;verticalAlign=middle;whiteSpace=wrap;rounded=0;" vertex="1" parent="1">
          <mxGeometry x="40" y="670" width="160" height="30" as="geometry" />
        </mxCell>
        <mxCell id="Nj_YNkAsuWWnfgFZPc_z-17" value="Armament" style="text;html=1;align=left;verticalAlign=middle;whiteSpace=wrap;rounded=0;" vertex="1" parent="1">
          <mxGeometry x="40" y="700" width="70" height="30" as="geometry" />
        </mxCell>
        <mxCell id="Nj_YNkAsuWWnfgFZPc_z-18" value="Weapons Delivery" style="text;html=1;align=left;verticalAlign=middle;whiteSpace=wrap;rounded=0;" vertex="1" parent="1">
          <mxGeometry x="40" y="730" width="160" height="30" as="geometry" />
        </mxCell>
        <mxCell id="Nj_YNkAsuWWnfgFZPc_z-19" value="Auxiliary Equipment" style="text;html=1;align=left;verticalAlign=middle;whiteSpace=wrap;rounded=0;" vertex="1" parent="1">
          <mxGeometry x="40" y="760" width="160" height="30" as="geometry" />
        </mxCell>
        <mxCell id="Nj_YNkAsuWWnfgFZPc_z-20" value="DT&amp;amp;E" style="text;html=1;align=left;verticalAlign=middle;whiteSpace=wrap;rounded=0;" vertex="1" parent="1">
          <mxGeometry x="220" y="280" width="70" height="30" as="geometry" />
        </mxCell>
        <mxCell id="Nj_YNkAsuWWnfgFZPc_z-21" value="OT&amp;amp;E" style="text;html=1;align=left;verticalAlign=middle;whiteSpace=wrap;rounded=0;" vertex="1" parent="1">
          <mxGeometry x="220" y="310" width="70" height="30" as="geometry" />
        </mxCell>
        <mxCell id="Nj_YNkAsuWWnfgFZPc_z-22" value="Mockups" style="text;html=1;align=left;verticalAlign=middle;whiteSpace=wrap;rounded=0;" vertex="1" parent="1">
          <mxGeometry x="220" y="340" width="70" height="30" as="geometry" />
        </mxCell>
        <mxCell id="Nj_YNkAsuWWnfgFZPc_z-23" value="T&amp;amp;E Support" style="text;html=1;align=left;verticalAlign=middle;whiteSpace=wrap;rounded=0;" vertex="1" parent="1">
          <mxGeometry x="220" y="370" width="70" height="30" as="geometry" />
        </mxCell>
        <mxCell id="Nj_YNkAsuWWnfgFZPc_z-24" value="Test Facilities" style="text;html=1;align=left;verticalAlign=middle;whiteSpace=wrap;rounded=0;" vertex="1" parent="1">
          <mxGeometry x="220" y="400" width="70" height="30" as="geometry" />
        </mxCell>
      </root>
    </mxGraphModel>
  </diagram>
</mxfile>
